<svg width="94" height="21" viewBox="0 0 94 21" fill="none" xmlns="http://www.w3.org/2000/svg">
<g clip-path="url(#clip0_533_263)">
<path d="M30.466 16.144C30.13 16.144 29.872 16.048 29.692 15.856C29.512 15.664 29.422 15.4 29.422 15.064V4.246C29.422 3.898 29.518 3.634 29.71 3.454C29.902 3.262 30.166 3.166 30.502 3.166C30.802 3.166 31.036 3.226 31.204 3.346C31.384 3.454 31.546 3.646 31.69 3.922L36.136 12.148H35.56L40.006 3.922C40.15 3.646 40.306 3.454 40.474 3.346C40.642 3.226 40.876 3.166 41.176 3.166C41.512 3.166 41.77 3.262 41.95 3.454C42.13 3.634 42.22 3.898 42.22 4.246V15.064C42.22 15.4 42.13 15.664 41.95 15.856C41.782 16.048 41.524 16.144 41.176 16.144C40.84 16.144 40.582 16.048 40.402 15.856C40.222 15.664 40.132 15.4 40.132 15.064V6.73H40.528L36.748 13.624C36.628 13.828 36.502 13.978 36.37 14.074C36.238 14.17 36.058 14.218 35.83 14.218C35.602 14.218 35.416 14.17 35.272 14.074C35.128 13.966 35.002 13.816 34.894 13.624L31.078 6.712H31.51V15.064C31.51 15.4 31.42 15.664 31.24 15.856C31.072 16.048 30.814 16.144 30.466 16.144ZM47.029 19.384C46.765 19.384 46.549 19.312 46.381 19.168C46.213 19.036 46.111 18.856 46.075 18.628C46.051 18.4 46.093 18.16 46.201 17.908L47.425 15.19V16.126L44.149 8.548C44.041 8.284 44.005 8.038 44.041 7.81C44.077 7.582 44.185 7.402 44.365 7.27C44.557 7.126 44.815 7.054 45.139 7.054C45.415 7.054 45.637 7.12 45.805 7.252C45.973 7.372 46.123 7.606 46.255 7.954L48.685 14.02H48.145L50.629 7.936C50.761 7.6 50.917 7.372 51.097 7.252C51.277 7.12 51.517 7.054 51.817 7.054C52.081 7.054 52.291 7.126 52.447 7.27C52.603 7.402 52.699 7.582 52.735 7.81C52.771 8.026 52.729 8.266 52.609 8.53L48.235 18.52C48.079 18.856 47.911 19.084 47.731 19.204C47.551 19.324 47.317 19.384 47.029 19.384ZM60.5263 16.144C60.1543 16.144 59.8663 16.042 59.6623 15.838C59.4703 15.622 59.3743 15.328 59.3743 14.956V4.48C59.3743 4.096 59.4763 3.808 59.6803 3.616C59.8843 3.412 60.1723 3.31 60.5443 3.31H64.8823C66.2743 3.31 67.3483 3.658 68.1043 4.354C68.8603 5.05 69.2383 6.022 69.2383 7.27C69.2383 8.518 68.8603 9.496 68.1043 10.204C67.3483 10.9 66.2743 11.248 64.8823 11.248H61.6783V14.956C61.6783 15.328 61.5823 15.622 61.3903 15.838C61.1983 16.042 60.9103 16.144 60.5263 16.144ZM61.6783 9.43H64.5223C65.3383 9.43 65.9563 9.25 66.3763 8.89C66.7963 8.518 67.0063 7.978 67.0063 7.27C67.0063 6.562 66.7963 6.028 66.3763 5.668C65.9563 5.308 65.3383 5.128 64.5223 5.128H61.6783V9.43ZM74.799 16.18C73.803 16.18 72.945 15.994 72.225 15.622C71.505 15.25 70.947 14.722 70.551 14.038C70.167 13.354 69.975 12.544 69.975 11.608C69.975 10.696 70.161 9.898 70.533 9.214C70.917 8.53 71.439 7.996 72.099 7.612C72.771 7.216 73.533 7.018 74.385 7.018C75.009 7.018 75.567 7.12 76.059 7.324C76.563 7.528 76.989 7.822 77.337 8.206C77.697 8.59 77.967 9.058 78.147 9.61C78.339 10.15 78.435 10.762 78.435 11.446C78.435 11.662 78.357 11.83 78.201 11.95C78.057 12.058 77.847 12.112 77.571 12.112H71.793V10.816H76.851L76.563 11.086C76.563 10.534 76.479 10.072 76.311 9.7C76.155 9.328 75.921 9.046 75.609 8.854C75.309 8.65 74.931 8.548 74.475 8.548C73.971 8.548 73.539 8.668 73.179 8.908C72.831 9.136 72.561 9.466 72.369 9.898C72.189 10.318 72.099 10.822 72.099 11.41V11.536C72.099 12.52 72.327 13.258 72.783 13.75C73.251 14.23 73.935 14.47 74.835 14.47C75.147 14.47 75.495 14.434 75.879 14.362C76.275 14.278 76.647 14.14 76.995 13.948C77.247 13.804 77.469 13.744 77.661 13.768C77.853 13.78 78.003 13.846 78.111 13.966C78.231 14.086 78.303 14.236 78.327 14.416C78.351 14.584 78.315 14.758 78.219 14.938C78.135 15.118 77.985 15.274 77.769 15.406C77.349 15.67 76.863 15.868 76.311 16C75.771 16.12 75.267 16.18 74.799 16.18ZM84.2137 16.18C83.4337 16.18 82.7797 16.048 82.2517 15.784C81.7357 15.52 81.3517 15.136 81.0997 14.632C80.8477 14.116 80.7217 13.48 80.7217 12.724V8.89H79.7857C79.4977 8.89 79.2757 8.818 79.1197 8.674C78.9637 8.518 78.8857 8.308 78.8857 8.044C78.8857 7.768 78.9637 7.558 79.1197 7.414C79.2757 7.27 79.4977 7.198 79.7857 7.198H80.7217V5.56C80.7217 5.188 80.8177 4.906 81.0097 4.714C81.2137 4.522 81.4957 4.426 81.8557 4.426C82.2157 4.426 82.4917 4.522 82.6837 4.714C82.8757 4.906 82.9717 5.188 82.9717 5.56V7.198H84.8797C85.1677 7.198 85.3897 7.27 85.5457 7.414C85.7017 7.558 85.7797 7.768 85.7797 8.044C85.7797 8.308 85.7017 8.518 85.5457 8.674C85.3897 8.818 85.1677 8.89 84.8797 8.89H82.9717V12.598C82.9717 13.174 83.0977 13.606 83.3497 13.894C83.6017 14.182 84.0097 14.326 84.5737 14.326C84.7777 14.326 84.9577 14.308 85.1137 14.272C85.2697 14.236 85.4077 14.212 85.5277 14.2C85.6717 14.188 85.7917 14.236 85.8877 14.344C85.9837 14.44 86.0317 14.644 86.0317 14.956C86.0317 15.196 85.9897 15.412 85.9057 15.604C85.8337 15.784 85.6957 15.91 85.4917 15.982C85.3357 16.03 85.1317 16.072 84.8797 16.108C84.6277 16.156 84.4057 16.18 84.2137 16.18ZM90.3119 16.18C89.7959 16.18 89.2499 16.126 88.6739 16.018C88.0979 15.91 87.5819 15.724 87.1259 15.46C86.9339 15.34 86.7959 15.202 86.7119 15.046C86.6399 14.878 86.6099 14.716 86.6219 14.56C86.6459 14.392 86.7059 14.248 86.8019 14.128C86.9099 14.008 87.0419 13.93 87.1979 13.894C87.3659 13.858 87.5459 13.888 87.7379 13.984C88.2179 14.212 88.6679 14.374 89.0879 14.47C89.5079 14.554 89.9219 14.596 90.3299 14.596C90.9059 14.596 91.3319 14.5 91.6079 14.308C91.8959 14.104 92.0399 13.84 92.0399 13.516C92.0399 13.24 91.9439 13.03 91.7519 12.886C91.5719 12.73 91.2959 12.616 90.9239 12.544L89.1239 12.202C88.3799 12.058 87.8099 11.788 87.4139 11.392C87.0299 10.984 86.8379 10.462 86.8379 9.826C86.8379 9.25 86.9939 8.752 87.3059 8.332C87.6299 7.912 88.0739 7.588 88.6379 7.36C89.2019 7.132 89.8499 7.018 90.5819 7.018C91.1099 7.018 91.6019 7.078 92.0579 7.198C92.5259 7.306 92.9759 7.48 93.4079 7.72C93.5879 7.816 93.7079 7.942 93.7679 8.098C93.8399 8.254 93.8579 8.416 93.8219 8.584C93.7859 8.74 93.7139 8.884 93.6059 9.016C93.4979 9.136 93.3599 9.214 93.1919 9.25C93.0359 9.274 92.8559 9.238 92.6519 9.142C92.2799 8.95 91.9199 8.812 91.5719 8.728C91.2359 8.644 90.9119 8.602 90.5999 8.602C90.0119 8.602 89.5739 8.704 89.2859 8.908C89.0099 9.112 88.8719 9.382 88.8719 9.718C88.8719 9.97 88.9559 10.18 89.1239 10.348C89.2919 10.516 89.5499 10.63 89.8979 10.69L91.6979 11.032C92.4779 11.176 93.0659 11.44 93.4619 11.824C93.8699 12.208 94.0739 12.724 94.0739 13.372C94.0739 14.248 93.7319 14.938 93.0479 15.442C92.3639 15.934 91.4519 16.18 90.3119 16.18Z" fill="#31C648"/>
<path fill-rule="evenodd" clip-rule="evenodd" d="M6.63906 1C8.22071 1 9.50571 2.92702 9.50571 5.23945C9.50571 7.55191 8.22071 9.47891 6.63906 9.47891C5.05744 9.47891 3.77238 7.55191 3.77238 5.23945C3.87123 2.92702 5.05744 1 6.63906 1ZM10.2965 11.3096C13.6576 11.3096 14.0529 13.4293 16.8207 17.187C18.2046 19.8848 16.4254 21.5228 13.2621 20.8483C11.8782 20.1739 10.8896 19.8848 9.90113 19.8848C8.1218 19.9811 7.72643 21.0411 5.7494 20.9447C4.16778 20.9447 3.47582 20.2702 3.37697 19.3067C3.17927 18.2469 3.67352 17.6687 4.16778 16.8016C6.04595 13.5257 8.02296 10.9242 10.2965 11.3096ZM1.20224 7.35916C0.0160194 7.84091 -0.379385 9.57524 0.41143 11.3096C1.20224 13.0439 2.68501 14.1037 3.87123 13.622C5.05744 13.1402 5.45284 11.4059 4.66203 9.67158C3.87123 7.93733 2.38846 6.87741 1.20224 7.35916ZM18.7978 7.35916C19.984 7.84091 20.3794 9.57524 19.5886 11.3096C18.8966 13.0439 17.315 14.1037 16.1288 13.622C14.9426 13.1402 14.5471 11.4059 15.338 9.67158C16.1288 7.93733 17.6116 6.87741 18.7978 7.35916ZM13.2621 1C14.8437 1 16.1288 2.92702 16.1288 5.23945C16.1288 7.55191 14.8437 9.47891 13.2621 9.47891C11.6805 9.47891 10.3954 7.55191 10.3954 5.23945C10.3954 2.92702 11.6805 1 13.2621 1Z" fill="#31C648"/>
</g>
<defs>
<clipPath id="clip0_533_263">
<rect width="94" height="21" fill="white"/>
</clipPath>
</defs>
</svg>
