<svg width="94" height="21" viewBox="0 0 94 21" fill="none" xmlns="http://www.w3.org/2000/svg">
<g clip-path="url(#clip0_534_61)">
<path fill-rule="evenodd" clip-rule="evenodd" d="M6.63906 1C8.22071 1 9.50571 2.92702 9.50571 5.23945C9.50571 7.55191 8.22071 9.47891 6.63906 9.47891C5.05744 9.47891 3.77238 7.55191 3.77238 5.23945C3.87123 2.92702 5.05744 1 6.63906 1ZM10.2965 11.3096C13.6576 11.3096 14.0529 13.4293 16.8207 17.187C18.2046 19.8848 16.4254 21.5228 13.2621 20.8483C11.8782 20.1739 10.8896 19.8848 9.90113 19.8848C8.1218 19.9811 7.72643 21.0411 5.7494 20.9447C4.16778 20.9447 3.47582 20.2702 3.37697 19.3067C3.17927 18.2469 3.67352 17.6687 4.16778 16.8016C6.04595 13.5257 8.02296 10.9242 10.2965 11.3096ZM1.20224 7.35916C0.0160194 7.84091 -0.379385 9.57524 0.41143 11.3096C1.20224 13.0439 2.68501 14.1037 3.87123 13.622C5.05744 13.1402 5.45284 11.4059 4.66203 9.67158C3.87123 7.93733 2.38846 6.87741 1.20224 7.35916ZM18.7978 7.35916C19.984 7.84091 20.3794 9.57524 19.5886 11.3096C18.8966 13.0439 17.315 14.1037 16.1288 13.622C14.9426 13.1402 14.5471 11.4059 15.338 9.67158C16.1288 7.93733 17.6116 6.87741 18.7978 7.35916ZM13.2621 1C14.8437 1 16.1288 2.92702 16.1288 5.23945C16.1288 7.55191 14.8437 9.47891 13.2621 9.47891C11.6805 9.47891 10.3954 7.55191 10.3954 5.23945C10.3954 2.92702 11.6805 1 13.2621 1Z" fill="#7B61FF"/>
<path d="M30.376 16.126C30.1 16.126 29.884 16.048 29.728 15.892C29.584 15.736 29.512 15.52 29.512 15.244V4.066C29.512 3.778 29.59 3.562 29.746 3.418C29.902 3.262 30.112 3.184 30.376 3.184C30.628 3.184 30.82 3.232 30.952 3.328C31.096 3.412 31.228 3.568 31.348 3.796L36.064 12.598H35.506L40.204 3.796C40.324 3.568 40.45 3.412 40.582 3.328C40.714 3.232 40.906 3.184 41.158 3.184C41.422 3.184 41.626 3.262 41.77 3.418C41.914 3.562 41.986 3.778 41.986 4.066V15.244C41.986 15.52 41.914 15.736 41.77 15.892C41.638 16.048 41.434 16.126 41.158 16.126C40.882 16.126 40.672 16.048 40.528 15.892C40.384 15.736 40.312 15.52 40.312 15.244V5.956H40.708L36.532 13.678C36.436 13.858 36.334 13.99 36.226 14.074C36.118 14.158 35.968 14.2 35.776 14.2C35.584 14.2 35.428 14.158 35.308 14.074C35.188 13.978 35.08 13.846 34.984 13.678L30.772 5.938H31.204V15.244C31.204 15.52 31.132 15.736 30.988 15.892C30.856 16.048 30.652 16.126 30.376 16.126ZM46.8519 19.366C46.6359 19.366 46.4559 19.306 46.3119 19.186C46.1799 19.078 46.1019 18.928 46.0779 18.736C46.0659 18.556 46.1019 18.358 46.1859 18.142L47.4099 15.388V16.162L44.0439 8.332C43.9599 8.116 43.9299 7.912 43.9539 7.72C43.9779 7.528 44.0679 7.378 44.2239 7.27C44.3799 7.15 44.5899 7.09 44.8539 7.09C45.0819 7.09 45.2619 7.144 45.3939 7.252C45.5259 7.36 45.6459 7.546 45.7539 7.81L48.4719 14.524H47.9679L50.7219 7.81C50.8299 7.534 50.9559 7.348 51.0999 7.252C51.2439 7.144 51.4419 7.09 51.6939 7.09C51.9099 7.09 52.0779 7.15 52.1979 7.27C52.3299 7.378 52.4079 7.528 52.4319 7.72C52.4679 7.9 52.4379 8.098 52.3419 8.314L47.8419 18.664C47.7219 18.94 47.5839 19.126 47.4279 19.222C47.2839 19.318 47.0919 19.366 46.8519 19.366ZM60.0136 16.126C59.7136 16.126 59.4796 16.042 59.3116 15.874C59.1556 15.706 59.0776 15.472 59.0776 15.172V4.264C59.0776 3.952 59.1616 3.718 59.3296 3.562C59.4976 3.394 59.7316 3.31 60.0316 3.31H64.3336C65.7016 3.31 66.7576 3.652 67.5016 4.336C68.2456 5.008 68.6176 5.956 68.6176 7.18C68.6176 8.416 68.2456 9.376 67.5016 10.06C66.7576 10.732 65.7016 11.068 64.3336 11.068H60.9496V15.172C60.9496 15.472 60.8716 15.706 60.7156 15.874C60.5596 16.042 60.3256 16.126 60.0136 16.126ZM60.9496 9.574H64.0636C64.9636 9.574 65.6416 9.376 66.0976 8.98C66.5656 8.572 66.7996 7.972 66.7996 7.18C66.7996 6.4 66.5656 5.812 66.0976 5.416C65.6416 5.008 64.9636 4.804 64.0636 4.804H60.9496V9.574ZM74.1285 16.162C73.1685 16.162 72.3405 15.982 71.6445 15.622C70.9605 15.25 70.4265 14.728 70.0425 14.056C69.6705 13.372 69.4845 12.562 69.4845 11.626C69.4845 10.714 69.6705 9.916 70.0425 9.232C70.4145 8.548 70.9245 8.014 71.5725 7.63C72.2205 7.246 72.9585 7.054 73.7865 7.054C74.3985 7.054 74.9445 7.156 75.4245 7.36C75.9045 7.552 76.3125 7.84 76.6485 8.224C76.9965 8.596 77.2545 9.052 77.4225 9.592C77.6025 10.132 77.6925 10.738 77.6925 11.41C77.6925 11.614 77.6325 11.77 77.5125 11.878C77.3925 11.974 77.2125 12.022 76.9725 12.022H70.9245V10.906H76.4685L76.1625 11.158C76.1625 10.558 76.0725 10.048 75.8925 9.628C75.7245 9.208 75.4665 8.89 75.1185 8.674C74.7825 8.446 74.3625 8.332 73.8585 8.332C73.2945 8.332 72.8145 8.464 72.4185 8.728C72.0345 8.992 71.7405 9.358 71.5365 9.826C71.3325 10.294 71.2305 10.84 71.2305 11.464V11.572C71.2305 12.628 71.4765 13.426 71.9685 13.966C72.4725 14.494 73.1985 14.758 74.1465 14.758C74.5065 14.758 74.8845 14.71 75.2805 14.614C75.6885 14.518 76.0725 14.356 76.4325 14.128C76.6365 14.008 76.8165 13.954 76.9725 13.966C77.1405 13.978 77.2725 14.032 77.3685 14.128C77.4765 14.224 77.5425 14.344 77.5665 14.488C77.5905 14.632 77.5665 14.782 77.4945 14.938C77.4225 15.082 77.2965 15.214 77.1165 15.334C76.7085 15.61 76.2345 15.82 75.6945 15.964C75.1545 16.096 74.6325 16.162 74.1285 16.162ZM83.4009 16.162C82.6809 16.162 82.0749 16.036 81.5829 15.784C81.0909 15.532 80.7249 15.16 80.4849 14.668C80.2449 14.176 80.1249 13.576 80.1249 12.868V8.62H79.0449C78.8049 8.62 78.6189 8.56 78.4869 8.44C78.3549 8.308 78.2889 8.134 78.2889 7.918C78.2889 7.69 78.3549 7.516 78.4869 7.396C78.6189 7.276 78.8049 7.216 79.0449 7.216H80.1249V5.362C80.1249 5.062 80.2029 4.834 80.3589 4.678C80.5269 4.522 80.7549 4.444 81.0429 4.444C81.3309 4.444 81.5529 4.522 81.7089 4.678C81.8649 4.834 81.9429 5.062 81.9429 5.362V7.216H84.0489C84.2889 7.216 84.4749 7.276 84.6069 7.396C84.7389 7.516 84.8049 7.69 84.8049 7.918C84.8049 8.134 84.7389 8.308 84.6069 8.44C84.4749 8.56 84.2889 8.62 84.0489 8.62H81.9429V12.724C81.9429 13.36 82.0749 13.84 82.3389 14.164C82.6149 14.488 83.0589 14.65 83.6709 14.65C83.8869 14.65 84.0729 14.632 84.2289 14.596C84.3969 14.548 84.5349 14.518 84.6429 14.506C84.7749 14.506 84.8829 14.554 84.9669 14.65C85.0509 14.734 85.0929 14.902 85.0929 15.154C85.0929 15.334 85.0569 15.502 84.9849 15.658C84.9249 15.814 84.8109 15.916 84.6429 15.964C84.4989 16.012 84.3009 16.054 84.0489 16.09C83.8089 16.138 83.5929 16.162 83.4009 16.162ZM89.3091 16.162C88.7811 16.162 88.2351 16.102 87.6711 15.982C87.1191 15.862 86.6091 15.658 86.1411 15.37C85.9851 15.262 85.8771 15.142 85.8171 15.01C85.7571 14.878 85.7331 14.746 85.7451 14.614C85.7691 14.47 85.8231 14.35 85.9071 14.254C86.0031 14.146 86.1171 14.08 86.2491 14.056C86.3931 14.032 86.5431 14.062 86.6991 14.146C87.1671 14.41 87.6171 14.596 88.0491 14.704C88.4811 14.8 88.9071 14.848 89.3271 14.848C89.9631 14.848 90.4431 14.734 90.7671 14.506C91.0911 14.278 91.2531 13.972 91.2531 13.588C91.2531 13.276 91.1451 13.036 90.9291 12.868C90.7131 12.688 90.3891 12.55 89.9571 12.454L88.2471 12.112C87.5031 11.956 86.9391 11.68 86.5551 11.284C86.1711 10.888 85.9791 10.384 85.9791 9.772C85.9791 9.22 86.1291 8.74 86.4291 8.332C86.7291 7.924 87.1491 7.612 87.6891 7.396C88.2291 7.168 88.8531 7.054 89.5611 7.054C90.0891 7.054 90.5871 7.12 91.0551 7.252C91.5231 7.384 91.9551 7.582 92.3511 7.846C92.5071 7.93 92.6091 8.044 92.6571 8.188C92.7051 8.32 92.7111 8.452 92.6751 8.584C92.6511 8.716 92.5911 8.836 92.4951 8.944C92.3991 9.04 92.2791 9.1 92.1351 9.124C92.0031 9.136 91.8531 9.1 91.6851 9.016C91.3251 8.788 90.9651 8.626 90.6051 8.53C90.2571 8.434 89.9091 8.386 89.5611 8.386C88.9251 8.386 88.4451 8.506 88.1211 8.746C87.8091 8.974 87.6531 9.286 87.6531 9.682C87.6531 9.982 87.7491 10.228 87.9411 10.42C88.1331 10.612 88.4331 10.75 88.8411 10.834L90.5511 11.176C91.3311 11.332 91.9191 11.596 92.3151 11.968C92.7231 12.34 92.9271 12.844 92.9271 13.48C92.9271 14.308 92.5971 14.962 91.9371 15.442C91.2771 15.922 90.4011 16.162 89.3091 16.162Z" fill="#7B61FF"/>
</g>
<defs>
<clipPath id="clip0_534_61">
<rect width="94" height="21" fill="white"/>
</clipPath>
</defs>
</svg>
